<svg xmlns="http://www.w3.org/2000/svg" viewBox="0 0 64 64">
  <!-- Sun -->
  <circle cx="18" cy="18" r="6" fill="#FFD700"/>
  <line x1="18" y1="8" x2="18" y2="4" stroke="#FFD700" stroke-width="2" stroke-linecap="round"/>
  <line x1="18" y1="34" x2="18" y2="30" stroke="#FFD700" stroke-width="2" stroke-linecap="round"/>
  <line x1="8" y1="18" x2="4" y2="18" stroke="#FFD700" stroke-width="2" stroke-linecap="round"/>
  <line x1="28" y1="18" x2="32" y2="18" stroke="#FFD700" stroke-width="2" stroke-linecap="round"/>
  <line x1="12.24" y1="12.24" x2="10.12" y2="10.12" stroke="#FFD700" stroke-width="2" stroke-linecap="round"/>
  <line x1="23.76" y1="23.76" x2="25.88" y2="25.88" stroke="#FFD700" stroke-width="2" stroke-linecap="round"/>
  <line x1="12.24" y1="23.76" x2="10.12" y2="25.88" stroke="#FFD700" stroke-width="2" stroke-linecap="round"/>
  <line x1="23.76" y1="12.24" x2="25.88" y2="10.12" stroke="#FFD700" stroke-width="2" stroke-linecap="round"/>
  
  <!-- Cloud -->
  <path d="M42 36 C42 39.314 39.314 42 36 42 C33.791 42 31.8 40.609 30.6 38.5 C28.9 39.6 26.8 40.2 24.5 40.2 C18.2 40.2 13.2 35.2 13.2 28.9 C13.2 23.6 16.8 19.2 21.5 18 C22.2 14.8 25 12.5 28.3 12.5 C30.5 12.5 32.4 13.6 33.6 15.2 C35.4 13.9 37.7 13.1 40.2 13.1 C45.6 13.1 50 17.5 50 22.9 C50 23.8 49.8 24.7 49.5 25.5 C52.6 26.5 55 29.3 55 32.7 C55 36.5 51.8 39.7 48 39.7 C46.6 39.7 45.3 39.2 44.2 38.4 C43.3 39.5 42 40.2 40.5 40.2 C37.4 40.2 34.9 37.7 34.9 34.6 C34.9 33.1 35.5 31.8 36.4 30.8 C36 29.4 35.8 27.9 35.8 26.3 C35.8 21.1 40 17 44.8 17 C46.2 17 47.5 17.4 48.6 18.1 C49.4 17.5 50.4 17.2 51.5 17.2 C54.5 17.2 57 19.7 57 22.7 C57 24.3 56.2 25.7 55 26.6 C55.5 27.1 55.8 27.7 55.9 28.4 C57.2 28.9 58.2 29.9 58.2 31.2 C58.2 32.9 56.9 34.2 55.2 34.2 C54.3 34.2 53.5 33.9 52.8 33.4 C52 34.4 50.8 35.1 49.4 35.1 C47.2 35.1 45.4 33.3 45.4 31.1 C45.4 29.8 46 28.7 46.9 28 C46.4 27 46.2 25.9 46.2 24.7 C46.2 20.2 49.9 16.5 54.4 16.5 C55.7 16.5 56.9 16.8 58 17.3 C58.7 16 59.8 15.1 61.1 15.1 C63.3 15.1 65.1 16.9 65.1 19.1 C65.1 20.6 64.3 21.9 63.1 22.6 C63.6 23.1 63.9 23.7 64 24.4 C64.9 24.8 65.6 25.6 65.6 26.6 C65.6 28.1 64.3 29.4 62.8 29.4 C62 29.4 61.3 29.1 60.7 28.6 C60 29.4 59 30 57.8 30 C55.6 30 53.8 28.2 53.8 26 C53.8 24.9 54.3 23.9 55 23.2 C54.5 22.3 54.2 21.3 54.2 20.2 C54.2 16.6 57.2 13.6 60.8 13.6 C61.9 13.6 62.9 13.9 63.8 14.4" 
        fill="#87CEEB" stroke="#4682B4" stroke-width="1.5"/>
  <ellipse cx="42" cy="36" rx="9" ry="6" fill="#87CEEB"/>
</svg>
